<mxfile host="65bd71144e">
    <diagram name="Page-1" id="keTFyMMc3kY7PpYYZGMF">
        <mxGraphModel dx="1539" dy="1663" grid="1" gridSize="10" guides="1" tooltips="1" connect="1" arrows="1" fold="1" page="1" pageScale="1" pageWidth="850" pageHeight="1100" math="0" shadow="0">
            <root>
                <mxCell id="0"/>
                <mxCell id="1" parent="0"/>
                <mxCell id="2" value="Start" style="whiteSpace=wrap;strokeWidth=2;" parent="1" vertex="1">
                    <mxGeometry x="263" width="50" height="33" as="geometry"/>
                </mxCell>
                <mxCell id="3" value="Initialize App" style="rounded=1;absoluteArcSize=1;arcSize=14;whiteSpace=wrap;strokeWidth=2;" parent="1" vertex="1">
                    <mxGeometry x="233" y="83" width="110" height="34" as="geometry"/>
                </mxCell>
                <mxCell id="4" value="User Action" style="rhombus;strokeWidth=2;whiteSpace=wrap;" parent="1" vertex="1">
                    <mxGeometry x="223" y="167" width="131" height="131" as="geometry"/>
                </mxCell>
                <mxCell id="5" value="Cognito User Authentication" style="whiteSpace=wrap;strokeWidth=2;" parent="1" vertex="1">
                    <mxGeometry x="151" y="460" width="158" height="41" as="geometry"/>
                </mxCell>
                <mxCell id="6" value="User Registration" style="whiteSpace=wrap;strokeWidth=2;" parent="1" vertex="1">
                    <mxGeometry x="370" y="616" width="137" height="34" as="geometry"/>
                </mxCell>
                <mxCell id="7g6uOB3AXQ3yHQo0Hlqa-65" style="edgeStyle=orthogonalEdgeStyle;rounded=0;orthogonalLoop=1;jettySize=auto;html=1;exitX=0;exitY=0.5;exitDx=0;exitDy=0;entryX=1;entryY=0.5;entryDx=0;entryDy=0;entryPerimeter=0;" parent="1" source="7" target="7g6uOB3AXQ3yHQo0Hlqa-64" edge="1">
                    <mxGeometry relative="1" as="geometry"/>
                </mxCell>
                <mxCell id="7g6uOB3AXQ3yHQo0Hlqa-66" value="Ceck" style="edgeLabel;html=1;align=center;verticalAlign=middle;resizable=0;points=[];" parent="7g6uOB3AXQ3yHQo0Hlqa-65" vertex="1" connectable="0">
                    <mxGeometry x="-0.1373" relative="1" as="geometry">
                        <mxPoint as="offset"/>
                    </mxGeometry>
                </mxCell>
                <mxCell id="7" value="Valid User?" style="rhombus;strokeWidth=2;whiteSpace=wrap;" parent="1" vertex="1">
                    <mxGeometry x="167" y="570" width="126" height="126" as="geometry"/>
                </mxCell>
                <mxCell id="8" value="Main View" style="whiteSpace=wrap;strokeWidth=2;fillStyle=solid;fillColor=none;" parent="1" vertex="1">
                    <mxGeometry x="216" y="764" width="126" height="33" as="geometry"/>
                </mxCell>
                <mxCell id="9" value="Password Reset" style="whiteSpace=wrap;strokeWidth=2;" parent="1" vertex="1">
                    <mxGeometry x="238" y="366" width="124" height="33" as="geometry"/>
                </mxCell>
                <mxCell id="10" value="Actions" style="rhombus;strokeWidth=2;whiteSpace=wrap;" parent="1" vertex="1">
                    <mxGeometry x="143" y="847" width="100" height="100" as="geometry"/>
                </mxCell>
                <mxCell id="7g6uOB3AXQ3yHQo0Hlqa-36" style="edgeStyle=orthogonalEdgeStyle;rounded=0;orthogonalLoop=1;jettySize=auto;html=1;exitX=0.5;exitY=1;exitDx=0;exitDy=0;entryX=0.5;entryY=0;entryDx=0;entryDy=0;" parent="1" source="11" target="7g6uOB3AXQ3yHQo0Hlqa-35" edge="1">
                    <mxGeometry relative="1" as="geometry"/>
                </mxCell>
                <mxCell id="11" value="Upload Flightlogs" style="whiteSpace=wrap;strokeWidth=2;" parent="1" vertex="1">
                    <mxGeometry x="15" y="1016" width="128" height="33" as="geometry"/>
                </mxCell>
                <mxCell id="7g6uOB3AXQ3yHQo0Hlqa-60" style="orthogonalLoop=1;jettySize=auto;html=1;exitX=0.5;exitY=1;exitDx=0;exitDy=0;entryX=0.5;entryY=0;entryDx=0;entryDy=0;edgeStyle=orthogonalEdgeStyle;curved=1;" parent="1" source="12" target="7g6uOB3AXQ3yHQo0Hlqa-52" edge="1">
                    <mxGeometry relative="1" as="geometry"/>
                </mxCell>
                <mxCell id="7g6uOB3AXQ3yHQo0Hlqa-61" value="Detail View" style="edgeLabel;html=1;align=center;verticalAlign=middle;resizable=0;points=[];" parent="7g6uOB3AXQ3yHQo0Hlqa-60" vertex="1" connectable="0">
                    <mxGeometry x="0.173" y="-2" relative="1" as="geometry">
                        <mxPoint y="1" as="offset"/>
                    </mxGeometry>
                </mxCell>
                <mxCell id="12" value="Sites Viewing" style="whiteSpace=wrap;strokeWidth=2;" parent="1" vertex="1">
                    <mxGeometry x="243" y="1015" width="105" height="34" as="geometry"/>
                </mxCell>
                <mxCell id="7g6uOB3AXQ3yHQo0Hlqa-34" style="edgeStyle=orthogonalEdgeStyle;orthogonalLoop=1;jettySize=auto;html=1;exitX=0.75;exitY=0;exitDx=0;exitDy=0;entryX=1;entryY=0.5;entryDx=0;entryDy=0;curved=1;" parent="1" source="14" target="4" edge="1">
                    <mxGeometry relative="1" as="geometry"/>
                </mxCell>
                <mxCell id="14" value="Logout" style="whiteSpace=wrap;strokeWidth=2;" parent="1" vertex="1">
                    <mxGeometry x="494" y="881" width="63" height="34" as="geometry"/>
                </mxCell>
                <mxCell id="15" value="End" style="whiteSpace=wrap;strokeWidth=2;" parent="1" vertex="1">
                    <mxGeometry x="505" y="1016" width="41" height="33" as="geometry"/>
                </mxCell>
                <mxCell id="16" value="" style="curved=1;startArrow=none;endArrow=block;exitX=0.5050833129882812;exitY=1.0121212583599668;entryX=0.5023105968128551;entryY=0.011764750761144301;" parent="1" source="2" target="3" edge="1">
                    <mxGeometry relative="1" as="geometry">
                        <Array as="points"/>
                    </mxGeometry>
                </mxCell>
                <mxCell id="17" value="" style="curved=1;startArrow=none;endArrow=block;exitX=0.5023105968128551;exitY=0.9990196228027344;entryX=0.4981234019039241;entryY=-0.00025444904356512407;" parent="1" source="3" target="4" edge="1">
                    <mxGeometry relative="1" as="geometry">
                        <Array as="points"/>
                    </mxGeometry>
                </mxCell>
                <mxCell id="18" value="Login" style="curved=1;startArrow=none;endArrow=block;exitX=-0.00047709923664122136;exitY=0.9733777801598701;entryX=0.40515615029159385;entryY=0.004040457985617898;" parent="1" source="4" target="5" edge="1">
                    <mxGeometry relative="1" as="geometry">
                        <Array as="points">
                            <mxPoint x="184" y="332"/>
                            <mxPoint x="184" y="434"/>
                        </Array>
                    </mxGeometry>
                </mxCell>
                <mxCell id="19" value="Sign Up" style="curved=1;startArrow=none;endArrow=block;exitX=0.9967239030444895;exitY=0.8279427506185023;entryX=0.5031021911732472;entryY=-0.000735170700970818;" parent="1" source="4" target="6" edge="1">
                    <mxGeometry relative="1" as="geometry">
                        <Array as="points">
                            <mxPoint x="439" y="332"/>
                        </Array>
                    </mxGeometry>
                </mxCell>
                <mxCell id="20" value="" style="curved=1;startArrow=none;endArrow=block;exitX=0.4948953014696844;exitY=1.0161617163455847;entryX=0.48533875221799316;entryY=-0.0005290773179796007;" parent="1" source="5" target="7" edge="1">
                    <mxGeometry relative="1" as="geometry">
                        <Array as="points">
                            <mxPoint x="227" y="536"/>
                        </Array>
                    </mxGeometry>
                </mxCell>
                <mxCell id="21" value="Yes" style="curved=1;startArrow=none;endArrow=block;entryX=0.3708027151777873;entryY=-0.0005049272017045455;exitX=0.5;exitY=1;exitDx=0;exitDy=0;" parent="1" source="7" target="8" edge="1">
                    <mxGeometry relative="1" as="geometry">
                        <Array as="points">
                            <mxPoint x="230" y="730"/>
                        </Array>
                        <mxPoint x="230" y="670" as="sourcePoint"/>
                    </mxGeometry>
                </mxCell>
                <mxCell id="22" value="No" style="curved=1;startArrow=none;endArrow=block;exitX=1.000694441416907;exitY=0.029381139632422427;entryX=0.7159955685129336;entryY=1.0161617163455847;" parent="1" source="7" target="5" edge="1">
                    <mxGeometry relative="1" as="geometry">
                        <Array as="points">
                            <mxPoint x="333" y="536"/>
                        </Array>
                    </mxGeometry>
                </mxCell>
                <mxCell id="23" value="" style="curved=1;startArrow=none;endArrow=block;exitX=0.5031021911732472;exitY=0.9865197013406193;entryX=0.9141438278980408;entryY=-0.0005049272017045455;" parent="1" source="6" target="8" edge="1">
                    <mxGeometry relative="1" as="geometry">
                        <Array as="points">
                            <mxPoint x="439" y="730"/>
                        </Array>
                    </mxGeometry>
                </mxCell>
                <mxCell id="24" value="Forgot Password" style="curved=1;startArrow=none;endArrow=block;exitX=0.55540070897172;exitY=0.9969465532375656;entryX=0.4975470189125307;entryY=0.0050504857843572445;" parent="1" source="4" target="9" edge="1">
                    <mxGeometry relative="1" as="geometry">
                        <Array as="points">
                            <mxPoint x="300" y="332"/>
                        </Array>
                    </mxGeometry>
                </mxCell>
                <mxCell id="25" value="" style="curved=1;startArrow=none;endArrow=block;exitX=0.4975470189125307;exitY=1.0171717441443242;entryX=0.6456072425459058;entryY=0.004040457985617898;" parent="1" source="9" target="5" edge="1">
                    <mxGeometry relative="1" as="geometry">
                        <Array as="points">
                            <mxPoint x="300" y="434"/>
                        </Array>
                    </mxGeometry>
                </mxCell>
                <mxCell id="26" value="" style="curved=1;startArrow=none;endArrow=block;exitX=0;exitY=1;entryX=0.5;entryY=0;entryDx=0;entryDy=0;exitDx=0;exitDy=0;" parent="1" source="8" target="10" edge="1">
                    <mxGeometry relative="1" as="geometry">
                        <Array as="points">
                            <mxPoint x="193" y="822"/>
                        </Array>
                    </mxGeometry>
                </mxCell>
                <mxCell id="27" value="Upload Flightlogs" style="curved=1;startArrow=none;endArrow=block;exitX=0.0008750152587890625;exitY=0.785124230481423;entryX=0.40339391751165443;entryY=0.01060607216574929;" parent="1" source="10" target="11" edge="1">
                    <mxGeometry relative="1" as="geometry">
                        <Array as="points">
                            <mxPoint x="60" y="970"/>
                        </Array>
                    </mxGeometry>
                </mxCell>
                <mxCell id="28" value="View Sites" style="curved=1;startArrow=none;endArrow=block;exitX=1;exitY=1;entryX=0.3706622735125247;entryY=0.007843185873592602;exitDx=0;exitDy=0;" parent="1" source="10" target="12" edge="1">
                    <mxGeometry relative="1" as="geometry">
                        <Array as="points">
                            <mxPoint x="282" y="970"/>
                        </Array>
                    </mxGeometry>
                </mxCell>
                <mxCell id="30" value="" style="curved=1;startArrow=none;endArrow=block;exitX=0.5839934904957181;exitY=0.01060607216574929;entryX=0;entryY=0.5;entryDx=0;entryDy=0;" parent="1" source="11" target="8" edge="1">
                    <mxGeometry relative="1" as="geometry">
                        <Array as="points">
                            <mxPoint x="102" y="982"/>
                            <mxPoint x="102" y="822"/>
                        </Array>
                        <mxPoint x="210" y="781" as="targetPoint"/>
                    </mxGeometry>
                </mxCell>
                <mxCell id="7g6uOB3AXQ3yHQo0Hlqa-50" value="Back" style="edgeLabel;html=1;align=center;verticalAlign=middle;resizable=0;points=[];" parent="30" vertex="1" connectable="0">
                    <mxGeometry x="0.1095" y="-12" relative="1" as="geometry">
                        <mxPoint as="offset"/>
                    </mxGeometry>
                </mxCell>
                <mxCell id="31" value="" style="curved=1;startArrow=none;endArrow=block;exitX=0.6379091332606338;exitY=0.007843185873592602;entryX=0.4965938991970486;entryY=1.0116163311582622;" parent="1" source="12" target="8" edge="1">
                    <mxGeometry relative="1" as="geometry">
                        <Array as="points">
                            <mxPoint x="320" y="960"/>
                        </Array>
                    </mxGeometry>
                </mxCell>
                <mxCell id="33" value="" style="curved=1;startArrow=none;endArrow=block;exitX=0.9970568702334449;exitY=0.8281635952778391;entryX=0.5010581849113344;entryY=-0.004656735588522518;" parent="1" source="8" target="14" edge="1">
                    <mxGeometry relative="1" as="geometry">
                        <Array as="points">
                            <mxPoint x="526" y="822"/>
                        </Array>
                    </mxGeometry>
                </mxCell>
                <mxCell id="34" value="" style="curved=1;startArrow=none;endArrow=block;exitX=0.5010581849113344;exitY=0.9825981364530676;entryX=0.5016259914491235;entryY=0.01060607216574929;" parent="1" source="14" target="15" edge="1">
                    <mxGeometry relative="1" as="geometry">
                        <Array as="points"/>
                    </mxGeometry>
                </mxCell>
                <mxCell id="7g6uOB3AXQ3yHQo0Hlqa-39" style="edgeStyle=orthogonalEdgeStyle;rounded=0;orthogonalLoop=1;jettySize=auto;html=1;exitX=0.5;exitY=1;exitDx=0;exitDy=0;entryX=0.5;entryY=0;entryDx=0;entryDy=0;" parent="1" source="7g6uOB3AXQ3yHQo0Hlqa-35" target="7g6uOB3AXQ3yHQo0Hlqa-37" edge="1">
                    <mxGeometry relative="1" as="geometry"/>
                </mxCell>
                <mxCell id="7g6uOB3AXQ3yHQo0Hlqa-35" value="Request File Permission" style="whiteSpace=wrap;strokeWidth=2;" parent="1" vertex="1">
                    <mxGeometry x="15" y="1090" width="128" height="40" as="geometry"/>
                </mxCell>
                <mxCell id="7g6uOB3AXQ3yHQo0Hlqa-41" style="edgeStyle=orthogonalEdgeStyle;rounded=0;orthogonalLoop=1;jettySize=auto;html=1;exitX=0.5;exitY=1;exitDx=0;exitDy=0;entryX=0.5;entryY=0;entryDx=0;entryDy=0;" parent="1" source="7g6uOB3AXQ3yHQo0Hlqa-37" target="7g6uOB3AXQ3yHQo0Hlqa-40" edge="1">
                    <mxGeometry relative="1" as="geometry"/>
                </mxCell>
                <mxCell id="7g6uOB3AXQ3yHQo0Hlqa-37" value="Request USB Permission" style="whiteSpace=wrap;strokeWidth=2;" parent="1" vertex="1">
                    <mxGeometry x="15" y="1170" width="128" height="40" as="geometry"/>
                </mxCell>
                <mxCell id="7g6uOB3AXQ3yHQo0Hlqa-44" style="edgeStyle=orthogonalEdgeStyle;rounded=0;orthogonalLoop=1;jettySize=auto;html=1;exitX=0.5;exitY=1;exitDx=0;exitDy=0;entryX=0.5;entryY=0;entryDx=0;entryDy=0;" parent="1" source="7g6uOB3AXQ3yHQo0Hlqa-40" target="7g6uOB3AXQ3yHQo0Hlqa-42" edge="1">
                    <mxGeometry relative="1" as="geometry"/>
                </mxCell>
                <mxCell id="7g6uOB3AXQ3yHQo0Hlqa-40" value="Select Folder" style="whiteSpace=wrap;strokeWidth=2;" parent="1" vertex="1">
                    <mxGeometry x="15" y="1250" width="128" height="30" as="geometry"/>
                </mxCell>
                <mxCell id="7g6uOB3AXQ3yHQo0Hlqa-47" style="edgeStyle=orthogonalEdgeStyle;orthogonalLoop=1;jettySize=auto;html=1;exitX=0;exitY=0.5;exitDx=0;exitDy=0;entryX=0.5;entryY=0;entryDx=0;entryDy=0;curved=1;" parent="1" source="7g6uOB3AXQ3yHQo0Hlqa-42" edge="1">
                    <mxGeometry relative="1" as="geometry">
                        <mxPoint x="-96" y="1420" as="targetPoint"/>
                    </mxGeometry>
                </mxCell>
                <mxCell id="7g6uOB3AXQ3yHQo0Hlqa-57" value="Files selected" style="edgeLabel;html=1;align=center;verticalAlign=middle;resizable=0;points=[];" parent="7g6uOB3AXQ3yHQo0Hlqa-47" vertex="1" connectable="0">
                    <mxGeometry x="-0.1224" y="22" relative="1" as="geometry">
                        <mxPoint as="offset"/>
                    </mxGeometry>
                </mxCell>
                <mxCell id="7g6uOB3AXQ3yHQo0Hlqa-48" style="edgeStyle=orthogonalEdgeStyle;orthogonalLoop=1;jettySize=auto;html=1;exitX=1;exitY=0.25;exitDx=0;exitDy=0;curved=1;" parent="1" source="7g6uOB3AXQ3yHQo0Hlqa-42" edge="1">
                    <mxGeometry relative="1" as="geometry">
                        <mxPoint x="250" y="800" as="targetPoint"/>
                        <Array as="points">
                            <mxPoint x="250" y="1328"/>
                        </Array>
                    </mxGeometry>
                </mxCell>
                <mxCell id="7g6uOB3AXQ3yHQo0Hlqa-51" value="Return after&lt;br&gt;finished" style="edgeLabel;html=1;align=center;verticalAlign=middle;resizable=0;points=[];" parent="7g6uOB3AXQ3yHQo0Hlqa-48" vertex="1" connectable="0">
                    <mxGeometry x="-0.1221" y="20" relative="1" as="geometry">
                        <mxPoint y="1" as="offset"/>
                    </mxGeometry>
                </mxCell>
                <mxCell id="7g6uOB3AXQ3yHQo0Hlqa-42" value="Upload Files" style="whiteSpace=wrap;strokeWidth=2;" parent="1" vertex="1">
                    <mxGeometry x="15" y="1320" width="128" height="30" as="geometry"/>
                </mxCell>
                <mxCell id="7g6uOB3AXQ3yHQo0Hlqa-56" style="edgeStyle=orthogonalEdgeStyle;rounded=0;orthogonalLoop=1;jettySize=auto;html=1;exitX=0.5;exitY=1;exitDx=0;exitDy=0;entryX=0.5;entryY=0;entryDx=0;entryDy=0;entryPerimeter=0;" parent="1" source="7g6uOB3AXQ3yHQo0Hlqa-59" target="7g6uOB3AXQ3yHQo0Hlqa-55" edge="1">
                    <mxGeometry relative="1" as="geometry"/>
                </mxCell>
                <mxCell id="7g6uOB3AXQ3yHQo0Hlqa-58" value="Upload to S3" style="edgeLabel;html=1;align=center;verticalAlign=middle;resizable=0;points=[];" parent="7g6uOB3AXQ3yHQo0Hlqa-56" vertex="1" connectable="0">
                    <mxGeometry x="-0.25" relative="1" as="geometry">
                        <mxPoint as="offset"/>
                    </mxGeometry>
                </mxCell>
                <mxCell id="7g6uOB3AXQ3yHQo0Hlqa-62" style="edgeStyle=orthogonalEdgeStyle;orthogonalLoop=1;jettySize=auto;html=1;exitX=0.75;exitY=0;exitDx=0;exitDy=0;entryX=1;entryY=0.5;entryDx=0;entryDy=0;curved=1;" parent="1" source="7g6uOB3AXQ3yHQo0Hlqa-52" target="12" edge="1">
                    <mxGeometry relative="1" as="geometry"/>
                </mxCell>
                <mxCell id="7g6uOB3AXQ3yHQo0Hlqa-63" value="Back" style="edgeLabel;html=1;align=center;verticalAlign=middle;resizable=0;points=[];" parent="7g6uOB3AXQ3yHQo0Hlqa-62" vertex="1" connectable="0">
                    <mxGeometry x="-0.1403" y="16" relative="1" as="geometry">
                        <mxPoint x="1" as="offset"/>
                    </mxGeometry>
                </mxCell>
                <mxCell id="7g6uOB3AXQ3yHQo0Hlqa-52" value="Detailed Sites Viewing" style="whiteSpace=wrap;strokeWidth=2;" parent="1" vertex="1">
                    <mxGeometry x="320" y="1130" width="130" height="40" as="geometry"/>
                </mxCell>
                <mxCell id="7g6uOB3AXQ3yHQo0Hlqa-55" value="" style="sketch=0;points=[[0,0,0],[0.25,0,0],[0.5,0,0],[0.75,0,0],[1,0,0],[0,1,0],[0.25,1,0],[0.5,1,0],[0.75,1,0],[1,1,0],[0,0.25,0],[0,0.5,0],[0,0.75,0],[1,0.25,0],[1,0.5,0],[1,0.75,0]];outlineConnect=0;fontColor=#232F3E;gradientColor=#60A337;gradientDirection=north;fillColor=#277116;strokeColor=#ffffff;dashed=0;verticalLabelPosition=bottom;verticalAlign=top;align=center;html=1;fontSize=12;fontStyle=0;aspect=fixed;shape=mxgraph.aws4.resourceIcon;resIcon=mxgraph.aws4.s3;" parent="1" vertex="1">
                    <mxGeometry x="-135" y="1540" width="78" height="78" as="geometry"/>
                </mxCell>
                <mxCell id="7g6uOB3AXQ3yHQo0Hlqa-59" value="Start detached Worker" style="rounded=1;absoluteArcSize=1;arcSize=14;whiteSpace=wrap;strokeWidth=2;" parent="1" vertex="1">
                    <mxGeometry x="-153.5" y="1420" width="115" height="40" as="geometry"/>
                </mxCell>
                <mxCell id="7g6uOB3AXQ3yHQo0Hlqa-64" value="" style="sketch=0;points=[[0,0,0],[0.25,0,0],[0.5,0,0],[0.75,0,0],[1,0,0],[0,1,0],[0.25,1,0],[0.5,1,0],[0.75,1,0],[1,1,0],[0,0.25,0],[0,0.5,0],[0,0.75,0],[1,0.25,0],[1,0.5,0],[1,0.75,0]];outlineConnect=0;fontColor=#232F3E;gradientColor=#F54749;gradientDirection=north;fillColor=#C7131F;strokeColor=#ffffff;dashed=0;verticalLabelPosition=bottom;verticalAlign=top;align=center;html=1;fontSize=12;fontStyle=0;aspect=fixed;shape=mxgraph.aws4.resourceIcon;resIcon=mxgraph.aws4.cognito;" parent="1" vertex="1">
                    <mxGeometry x="-38.5" y="594" width="78" height="78" as="geometry"/>
                </mxCell>
            </root>
        </mxGraphModel>
    </diagram>
</mxfile>